<svg xmlns="http://www.w3.org/2000/svg" x="0px" y="0px"
width="50" height="50"
viewBox="0 0 172 172"
style=" fill:#000000;"><g fill="none" fill-rule="nonzero" stroke="none" stroke-width="1" stroke-linecap="butt" stroke-linejoin="miter" stroke-miterlimit="10" stroke-dasharray="" stroke-dashoffset="0" font-family="none" font-weight="none" font-size="none" text-anchor="none" style="mix-blend-mode: normal"><path d="M0,172v-172h172v172z" fill="none"></path><g><path d="M134.16,22.36c-0.94993,0 -1.72,0.77007 -1.72,1.72c0,0.94993 0.77007,1.72 1.72,1.72c0.94993,0 1.72,-0.77007 1.72,-1.72c0,-0.94993 -0.77007,-1.72 -1.72,-1.72z" fill="#f1bc19"></path><path d="M86,20.64c-36.09733,0 -65.36,29.26267 -65.36,65.36c0,36.09733 29.26267,65.36 65.36,65.36c36.09733,0 65.36,-29.26267 65.36,-65.36c0,-36.09733 -29.26267,-65.36 -65.36,-65.36z" fill="#1abc9c"></path><path d="M144.48,20.64c-3.79972,0 -6.88,3.08028 -6.88,6.88c0,3.79972 3.08028,6.88 6.88,6.88c3.79972,0 6.88,-3.08028 6.88,-6.88c0,-3.79972 -3.08028,-6.88 -6.88,-6.88z" fill="#f1bc19"></path><path d="M24.08,41.28c-1.89986,0 -3.44,1.54014 -3.44,3.44c0,1.89986 1.54014,3.44 3.44,3.44c1.89986,0 3.44,-1.54014 3.44,-3.44c0,-1.89986 -1.54014,-3.44 -3.44,-3.44z" fill="#ee3e54"></path><path d="M134.16,129c-1.89986,0 -3.44,1.54014 -3.44,3.44c0,1.89986 1.54014,3.44 3.44,3.44c1.89986,0 3.44,-1.54014 3.44,-3.44c0,-1.89986 -1.54014,-3.44 -3.44,-3.44zM29.24,127.28c-3.79972,0 -6.88,3.08028 -6.88,6.88c0,3.79972 3.08028,6.88 6.88,6.88c3.79972,0 6.88,-3.08028 6.88,-6.88c0,-3.79972 -3.08028,-6.88 -6.88,-6.88z" fill="#fbcd59"></path><path d="M41.28,139.32c-1.89986,0 -3.44,1.54014 -3.44,3.44c0,1.89986 1.54014,3.44 3.44,3.44c1.89986,0 3.44,-1.54014 3.44,-3.44c0,-1.89986 -1.54014,-3.44 -3.44,-3.44z" fill="#ee3e54"></path><path d="M114.35076,130.77848c-2.35868,0 -4.27076,1.91208 -4.27076,4.27076c0,2.35868 1.91208,4.27076 4.27076,4.27076c2.35868,0 4.27076,-1.91208 4.27076,-4.27076c0,-2.35868 -1.91208,-4.27076 -4.27076,-4.27076zM27.52,80.84c-0.94993,0 -1.72,0.77007 -1.72,1.72c0,0.94993 0.77007,1.72 1.72,1.72c0.94993,0 1.72,-0.77007 1.72,-1.72c0,-0.94993 -0.77007,-1.72 -1.72,-1.72z" fill="#ffffff"></path><path d="M147.92,51.6c-0.94993,0 -1.72,0.77007 -1.72,1.72c0,0.94993 0.77007,1.72 1.72,1.72c0.94993,0 1.72,-0.77007 1.72,-1.72c0,-0.94993 -0.77007,-1.72 -1.72,-1.72z" fill="#f1bc19"></path><path d="M137.6,110.08c-1.89986,0 -3.44,1.54014 -3.44,3.44c0,1.89986 1.54014,3.44 3.44,3.44c1.89986,0 3.44,-1.54014 3.44,-3.44c0,-1.89986 -1.54014,-3.44 -3.44,-3.44z" fill="#ffffff"></path><g fill="#a1a1ca"><path d="M49.86108,110.09892v-48.19784c0,-6.64952 5.39048,-12.04 12.04,-12.04h48.19956c6.64952,0 12.04,5.39048 12.04,12.04v48.19956c0,6.64952 -5.39048,12.04 -12.04,12.04h-48.19956c-6.64952,-0.00172 -12.04,-5.3922 -12.04,-12.04172z"></path></g><g fill="#472b29"><path d="M110.08,50.568c6.25908,0 11.352,5.09292 11.352,11.352v48.16c0,6.25908 -5.09292,11.352 -11.352,11.352h-48.16c-6.25908,0 -11.352,-5.09292 -11.352,-11.352v-48.16c0,-6.25908 5.09292,-11.352 11.352,-11.352h48.16M110.08,48.16h-48.16c-7.59896,0 -13.76,6.16104 -13.76,13.76v48.16c0,7.59896 6.16104,13.76 13.76,13.76h48.16c7.59896,0 13.76,-6.16104 13.76,-13.76v-48.16c0,-7.59896 -6.16104,-13.76 -13.76,-13.76z"></path></g><g fill="#fdfcee"><path d="M56.76,110.08v-48.16c0,-2.85004 2.30996,-5.16 5.16,-5.16h48.16c2.85004,0 5.16,2.30996 5.16,5.16v48.16c0,2.85004 -2.30996,5.16 -5.16,5.16h-14.89004h-33.26996c-2.85004,0 -5.16,-2.30996 -5.16,-5.16z"></path></g><g fill="#472b29"><path d="M116.1,77.4c-0.47472,0 -0.86,-0.38528 -0.86,-0.86v-3.44c0,-0.47472 0.38528,-0.86 0.86,-0.86c0.47472,0 0.86,0.38528 0.86,0.86v3.44c0,0.47472 -0.38528,0.86 -0.86,0.86z"></path></g><g fill="#472b29"><path d="M116.1,87.72c-0.47472,0 -0.86,-0.38528 -0.86,-0.86v-5.16c0,-0.47472 0.38528,-0.86 0.86,-0.86c0.47472,0 0.86,0.38528 0.86,0.86v5.16c0,0.47472 -0.38528,0.86 -0.86,0.86z"></path></g><g fill="#472b29"><path d="M116.96,92.02v17.2c0,4.257 -3.483,7.74 -7.74,7.74h-46.44c-4.2742,0 -7.74,-3.4658 -7.74,-7.74v-46.44c0,-4.257 3.483,-7.74 7.74,-7.74h36.12c0.4816,0 0.86,0.3784 0.86,0.86c0,0.4816 -0.3784,0.86 -0.86,0.86h-36.12c-3.32476,0 -6.02,2.69524 -6.02,6.02v46.44c0,3.32476 2.69524,6.02 6.02,6.02h46.44c3.32476,0 6.02,-2.69524 6.02,-6.02v-17.2c0,-0.4816 0.3784,-0.86 0.86,-0.86c0.4816,0 0.86,0.3784 0.86,0.86z"></path></g><g><path d="M103.48896,80.72132l-14.10916,4.85384l-1.23496,-1.27452l4.84008,-14.11088z" fill="#fdfcee"></path><path d="M95.67328,83.38904l-6.29692,2.19644l-1.23324,-1.29516l2.1672,-6.26252z" fill="#8889b9"></path><path d="M137.8752,46.1476l-34.52556,34.4688l-10.2856,-10.3028l34.50836,-34.4688c0.5504,-0.5332 1.2728,-0.8428 2.0468,-0.8428c0.602,0 1.1868,0.1892 1.6856,0.5332c1.0492,0.7396 2.2704,1.806 3.6808,3.1992c1.3932,1.4104 2.4596,2.6316 3.1992,3.6808c0.8084,1.1696 0.688,2.7348 -0.3096,3.7324z" fill="#f1bc19"></path><path d="M134.16516,50.70216l-4.3344,4.3344l-11.14732,-11.14732l4.3344,-4.3344z" fill="#8889b9"></path><path d="M138.29316,46.57416l-4.7472,4.7472l-11.14732,-11.14732l4.7472,-4.7472c1.20916,-1.20916 3.10288,-1.3674 4.50296,-0.38528c0.95288,0.66908 2.18096,1.69936 3.75476,3.27316c1.5738,1.5738 2.6058,2.80188 3.27316,3.75476c0.98384,1.4018 0.8256,3.29552 -0.38356,4.50468z" fill="#fcb9b9"></path><path d="M92.9846,70.81837l0.6081,-0.60812l9.94402,9.94367l-0.6081,0.60812z" fill="#472b29"></path><path d="M130.14036,47.29484c-0.17028,0.17028 -0.44892,0.17028 -0.6192,0l-6.6048,-6.6048c-0.17028,-0.17028 -0.17028,-0.44892 0,-0.6192c0.17028,-0.17028 0.44892,-0.17028 0.6192,0l6.6048,6.6048c0.17028,0.172 0.17028,0.44892 0,0.6192zM133.54596,50.70216c-0.17028,0.17028 -0.44892,0.17028 -0.6192,0l-1.548,-1.548c-0.17028,-0.17028 -0.17028,-0.44892 0,-0.6192c0.17028,-0.17028 0.44892,-0.17028 0.6192,0l1.548,1.548c0.17028,0.17028 0.17028,0.4472 0,0.6192z" fill="#472b29"></path><path d="M129.62264,35.69v0c0.45924,0 0.90472,0.14104 1.28484,0.40764c1.01136,0.71036 2.21708,1.763 3.58448,3.1304c1.38976,1.38976 2.45616,2.61268 3.16652,3.63436c0.60544,0.87204 0.47472,2.04852 -0.27692,2.79844l-34.25724,34.25724l-13.81676,4.60616l-0.1118,-0.1118l4.60616,-13.81676l34.25724,-34.25724c0.41796,-0.41796 0.97352,-0.64844 1.56348,-0.64844M129.62264,34.4c-0.903,0 -1.7974,0.34744 -2.4768,1.02684l-33.9098,33.91152c-0.3698,0.3698 -0.65016,0.817 -0.82044,1.31064l-4.63884,13.459c-0.12212,0.31992 -0.043,0.6794 0.20124,0.91848l0.71552,0.71552c0.23908,0.24424 0.60028,0.32336 0.9202,0.20124l13.459,-4.63884c0.49364,-0.17028 0.94256,-0.45064 1.31064,-0.82044l33.91152,-33.91152c1.19712,-1.19712 1.37944,-3.07536 0.41108,-4.46512c-0.66736,-0.95804 -1.70452,-2.19816 -3.30068,-3.7926c-1.5738,-1.5738 -2.80188,-2.6058 -3.75476,-3.27316c-0.61576,-0.43 -1.32268,-0.64156 -2.02788,-0.64156z" fill="#472b29"></path><path d="M90.38229,78.38318l0.43297,-0.43298l4.747,4.74684l-0.43297,0.43298z" fill="#472b29"></path><path d="M100.32097,69.68224l21.45746,-21.45821l0.43298,0.43297l-21.45746,21.45821z" fill="#472b29"></path><path d="M100.53916,69.59292c-0.16909,0 -0.30616,0.13707 -0.30616,0.30616c0,0.16909 0.13707,0.30616 0.30616,0.30616c0.16909,0 0.30616,-0.13707 0.30616,-0.30616c0,-0.16909 -0.13707,-0.30616 -0.30616,-0.30616z" fill="#472b29"></path><path d="M106.08216,70.48867l18.98006,-18.98072l0.43298,0.43297l-18.98006,18.98072z" fill="#472b29"></path><path d="M106.29772,70.39788c-0.16909,0 -0.30616,0.13707 -0.30616,0.30616c0,0.16909 0.13707,0.30616 0.30616,0.30616c0.16909,0 0.30616,-0.13707 0.30616,-0.30616c0,-0.16909 -0.13707,-0.30616 -0.30616,-0.30616z" fill="#472b29"></path></g></g><g><g id="Layer_1"><circle cx="78.68605" cy="78.68605" transform="scale(1.72,1.72)" r="15" fill="#fdfcef"></circle><path d="M135.34,111.088c13.373,0 24.252,10.879 24.252,24.252c0,13.373 -10.879,24.252 -24.252,24.252c-13.373,0 -24.252,-10.879 -24.252,-24.252c0,-13.373 10.879,-24.252 24.252,-24.252M135.34,108.68c-14.7232,0 -26.66,11.9368 -26.66,26.66c0,14.7232 11.9368,26.66 26.66,26.66c14.7232,0 26.66,-11.9368 26.66,-26.66c0,-14.7232 -11.9368,-26.66 -26.66,-26.66z" fill="#472b29"></path><circle cx="78.68505" cy="78.68605" transform="scale(1.72,1.72)" r="12.25" fill="#93bc39"></circle><path d="M135.34,114.27c-11.6186,0 -21.07,9.4514 -21.07,21.07c0,0.26316 0.02924,0.51772 0.03956,0.77916c2.02444,-9.7696 10.65884,-17.11916 21.03044,-17.11916c10.37332,0 19.00944,7.353 21.03044,17.12776c0.01032,-0.26316 0.03956,-0.52116 0.03956,-0.78776c0,-11.6186 -9.45312,-21.07 -21.07,-21.07z" fill="#b7cc6b"></path><path d="M135.33828,114.7c11.38124,0 20.64172,9.25876 20.64172,20.64c0,11.38124 -9.25876,20.64 -20.64172,20.64c-11.37952,0 -20.63828,-9.25876 -20.63828,-20.64c0,-11.38124 9.25876,-20.64 20.63828,-20.64M135.33828,113.84c-11.85424,0 -21.49828,9.64576 -21.49828,21.5c0,11.85424 9.64404,21.5 21.49828,21.5c11.85768,0 21.50172,-9.64576 21.50172,-21.5c0,-11.85424 -9.64404,-21.5 -21.50172,-21.5z" fill="#472b29"></path><path d="M145.66,134.48h-9.46v-9.46c0,-0.47472 -0.38528,-0.86 -0.86,-0.86c-0.47472,0 -0.86,0.38528 -0.86,0.86v9.46h-9.46c-0.47472,0 -0.86,0.38528 -0.86,0.86c0,0.47472 0.38528,0.86 0.86,0.86h9.46v9.46c0,0.47472 0.38528,0.86 0.86,0.86c0.47472,0 0.86,-0.38528 0.86,-0.86v-9.46h9.46c0.47472,0 0.86,-0.38528 0.86,-0.86c0,-0.47472 -0.38528,-0.86 -0.86,-0.86z" fill="#472b29"></path></g></g></g></svg>